PathFileType	4	(X/Y/Z)	C:/Users/beibeiliu/ov580/test_trc/User3\sequence.29_training_dense_left.trc
DataRate	CameraRate	NumFrames	NumMarkers	Units	OrigDataRate	OrigDataStartFrame	OrigNumFrames
120	120	13	19	mm	120	196	260
Frame#	Time	ThumbCMC			ThumbMCP			ThumbIP			ThumbTip			IndexMCP			IndexPIP			IndexTip			MiddleMCP			MiddlePIP			MiddleTip			RingMCP			RingPIP			RingTip			PinkyMCP			PinkyPIP			PinkyTip			BackHand1			BackHand2			BackHand3	
		X0	Y0	Z0	X1	Y1	Z1	X2	Y2	Z2	X3	Y3	Z3	X4	Y4	Z4	X5	Y5	Z5	X6	Y6	Z6	X7	Y7	Z7	X8	Y8	Z8	X9	Y9	Z9	X10	Y10	Z10	X11	Y11	Z11	X12	Y12	Z12	X13	Y13	Z13	X14	Y14	Z14	X15	Y15	Z15	X16	Y16	Z16	X17	Y17	Z17	X18	Y18	Z18	
195	1.625	-202.334	-9.72788	-5.38545	-175.854	7.71944	-18.8761	-145.078	11.952	-30.6116	-121.746	3.5553	-25.1869	-162.643	-34.8697	-66.1822	-136.912	-23.5685	-88.5753	-117.215	-3.63357	-87.7416	-140.968	-56.5848	-56.867	-112.213	-48.7409	-66.2342	-97.1405	-12.203	-49.9874	-127.079	-52.3369	-31.6649	-105.053	-30.6898	-28.8433	-117.238	-7.20922	-7.87435	-124.518	-47.3621	-9.11021	-119.507	-23.4931	-0.907428	-148.367	-15.9112	12.7581	-174.676	-70.6891	-8.3349	-194.168	-69.4893	13.0517	-201.291	-50.3921	-16.1041	
196	1.63333	-201.154	-11.9972	-5.55407	-177.157	7.75477	-18.1809	-147.032	14.1413	-28.5153	-118.228	0.283781	-26.8286	-163.94	-34.0472	-67.8359	-140.837	-25.0838	-86.1928	-116.805	-3.23219	-84.016	-144.856	-55.6914	-56.0647	-112.002	-44.5661	-67.4181	-99.6919	-9.0217	-53.1264	-128.139	-51.7308	-35.8763	-108.238	-25.7283	-33.5677	-119.377	-5.41254	-11.6595	-126.692	-48.2725	-10.987	-120.204	-22.7929	-1.30315	-146.013	-16.0944	14.7755	-174.503	-71.4098	-7.37429	-195.629	-72.6035	15.0006	-206.399	-48.005	-14.2577	
197	1.64167	-203.189	-8.27455	-7.45608	-176.274	8.46804	-16.901	-144.45	10.5034	-28.2089	-119.037	1.41773	-26.2001	-163.829	-33.1698	-69.8489	-138.081	-21.719	-86.5228	-119.784	-1.03838	-82.0315	-145.458	-56.4304	-56.4761	-118.845	-44.0112	-72.5979	-99.9845	-10.472	-54.4072	-130.844	-51.5466	-36.8761	-109.577	-28.8214	-34.4113	-118.369	-8.96802	-9.48496	-127.549	-49.4995	-12.0387	-120.884	-24.8913	-1.05489	-143	-14.5556	14.5331	-177.029	-69.4697	-9.6812	-198.155	-69.5786	17.2385	-203.754	-48.6494	-15.0404	
198	1.65	-204.198	-5.80632	-4.14104	-172.907	6.5594	-15.645	-144.763	11.8131	-24.9477	-118.548	-2.20302	-24.8291	-165.112	-32.5616	-65.8857	-141.62	-19.3066	-87.2067	-117.856	-1.21107	-78.2573	-144.272	-56.3372	-59.6326	-115.193	-44.5166	-70.3497	-99.1999	-13.052	-55.3754	-131.385	-54.2148	-34.019	-108.002	-31.4313	-28.8926	-118.761	-9.24234	-10.3122	-128.953	-53.7058	-10.1899	-119.418	-27.759	0.253166	-142.204	-17.3834	16.2955	-176.755	-70.7933	-10.7348	-198.932	-68.4539	14.4206	-207.781	-47.4132	-12.9838	
199	1.65833	-198.626	-9.91278	-4.64649	-169.147	4.42052	-16.9645	-137.693	7.73735	-26.7026	-118.011	-4.22676	-22.5723	-161.581	-34.9821	-67.9825	-139.038	-21.4278	-84.5812	-118.049	1.45575	-75.9109	-147.111	-54.7308	-61.4576	-119.217	-46.225	-71.717	-97.5363	-18.8472	-56.9678	-132.478	-52.491	-36.0083	-110.56	-31.2255	-30.6114	-123.514	-11.2387	-5.88926	-124.65	-50.9701	-10.5282	-120.825	-28.6333	-1.12402	-143.724	-21.1182	17.5789	-179.337	-67.4062	-12.1685	-199.645	-69.6364	14.2369	-207.739	-45.1538	-18.6642	
200	1.66667	-197.467	-8.60186	-6.42492	-166.374	5.15871	-16.9287	-135.411	8.4805	-25.0885	-115.697	-8.85515	-21.0594	-159.733	-35.0033	-69.5312	-138.917	-20.4557	-85.447	-117.624	3.49937	-74.5865	-147.684	-56.5326	-57.4277	-117.362	-42.6973	-76.1453	-96.4298	-19.518	-57.9586	-135.023	-51.6274	-37.1336	-110.111	-32.3047	-30.7227	-127.572	-11.8885	-7.30285	-128.818	-52.469	-12.1404	-121.887	-28.0912	-0.421798	-147.388	-20.589	18.0166	-179.866	-69.5224	-8.75869	-198.955	-70.6034	15.0391	-207.463	-48.3622	-13.0735	
201	1.675	-196.326	-6.98101	-7.24642	-165.646	10.5223	-15.0781	-136.072	8.34675	-22.7761	-112.832	-7.13963	-20.2594	-160.403	-33.9529	-67.5238	-133.977	-18.8249	-84.9287	-117.643	1.4167	-75.122	-149.166	-54.1855	-63.0551	-117.49	-43.0722	-77.1061	-95.4844	-19.294	-63.5834	-129.352	-53.7144	-38.5592	-110.367	-30.6615	-27.9905	-131.322	-15.2694	-5.11995	-125.777	-52.39	-13.2311	-122.028	-25.9563	1.32995	-146.57	-22.2662	15.0004	-177.247	-70.0677	-13.6504	-200.828	-68.321	13.0774	-208.335	-47.1681	-14.7621	
202	1.68333	-198.07	-6.23143	-3.87159	-162.505	3.37923	-15.7655	-132.903	4.32105	-22.0202	-109.35	-9.07181	-19.1367	-163.954	-30.5131	-68.468	-137.032	-16.4441	-87.8927	-116.445	0.815298	-76.563	-151.022	-52.4241	-63.3382	-119.505	-42.1017	-81.6693	-94.8034	-22.4977	-67.9452	-133.581	-50.7036	-42.7692	-111.551	-30.9893	-36.2587	-128.888	-15.6624	-11.0772	-125.594	-49.5902	-15.8976	-120.069	-28.5796	-3.53159	-145.553	-20.9393	13.8418	-178.307	-67.1902	-15.7172	-200.378	-68.7896	9.0354	-204.21	-45.4669	-18.1026	
203	1.69167	-196.135	-6.08468	-6.91853	-159.879	7.4873	-15.4233	-129.23	6.00305	-21.1859	-112.763	-13.352	-15.9718	-162.509	-32.0283	-68.6588	-141.482	-17.623	-88.7587	-116.487	0.707058	-80.5597	-150.696	-52.9447	-62.2984	-122.396	-44.2482	-82.1056	-96.267	-20.6973	-75.0563	-132.383	-53.5171	-40.0359	-111.926	-28.6	-33.8319	-129.308	-15.7351	-7.93413	-129.12	-52.8675	-15.423	-121.931	-26.5589	-3.36429	-144.245	-20.6656	11.0138	-176.573	-69.5117	-14.182	-198.225	-72.184	12.7325	-206.314	-43.2837	-18.7691	
204	1.7	-196.931	-9.98255	-5.17184	-163.155	6.87735	-15.3092	-135.292	3.92269	-17.754	-114.458	-18.4362	-12.5159	-163.679	-28.7404	-72.5918	-139.362	-19.6995	-88.3083	-116.639	1.32738	-86.0047	-149.06	-55.5852	-60.9425	-124.488	-49.3555	-80.4334	-93.9429	-28.5521	-77.4155	-133.925	-51.4063	-40.8903	-110.388	-29.0593	-34.0969	-120.574	-13.7065	-10.5059	-128.42	-52.8607	-14.3981	-121.005	-27.2504	-2.36506	-143.784	-20.435	15.7932	-179.887	-67.7833	-13.9404	-199.528	-69.0329	10.76	-207.255	-46.5959	-16.4334	
205	1.70833	-199.793	-6.83767	-6.69911	-168.582	7.09452	-15.9314	-135.663	-2.51265	-22.5667	-119.445	-21.7041	-13.3062	-166.701	-30.144	-67.5961	-147.297	-16.904	-92.099	-122.822	-3.03636	-96.4913	-151.011	-53.2939	-62.0107	-123.781	-51.0066	-79.4837	-92.4235	-30.9154	-83.0274	-128.906	-51.4566	-38.4347	-106.831	-29.4625	-32.3518	-111.233	-7.14578	-13.7016	-126.651	-48.7216	-15.3073	-121.37	-26.9075	-0.636897	-143.037	-16.3051	13.7042	-180.576	-69.4633	-14.0039	-197.341	-72.3668	14.2081	-206.273	-47.7462	-14.6919	
206	1.71667	-198.572	-8.17004	-6.33899	-167.853	6.45658	-15.3158	-137.232	-0.7371	-20.1204	-117.941	-22.287	-12.4317	-166.112	-32.0437	-68.3042	-150.041	-18.4864	-94.8553	-129.398	-5.07698	-105.267	-149.426	-52.7357	-62.6778	-122.878	-51.7446	-78.8753	-95.1801	-33.861	-87.7224	-131.418	-51.9978	-36.0055	-107.69	-29.4323	-33.721	-110.994	-7.17359	-8.01923	-129.683	-51.8251	-11.7481	-122.641	-25.7306	-0.29916	-147.218	-14.4261	15.8542	-180.719	-68.6207	-14.1882	-199.932	-72.3652	14.8567	-205.794	-44.7519	-17.5419	
207	1.725	-199.377	-8.48675	-4.1584	-166.56	9.21566	-10.8472	-134.207	7.87437	-18.0411	-111.823	-6.81955	-12.8699	-167.909	-29.8086	-70.7915	-155.432	-18.9842	-93.991	-135.909	-7.80691	-107.934	-147.81	-54.2008	-61.375	-124.176	-52.0946	-79.1239	-92.8018	-37.6213	-88.503	-132.527	-48.8904	-39.3698	-108.1	-32.5061	-31.0409	-117.853	-9.77617	-10.131	-125.523	-50.1011	-9.35883	-120.595	-25.3651	3.00715	-145.624	-16.1258	19.4529	-180.51	-67.6668	-12.4581	-199.274	-72.0006	10.8868	-207.484	-45.9647	-14.0259	
